<?xml version="1.0" encoding="utf-8"?>
<!-- Generator: Adobe Illustrator 16.0.0, SVG Export Plug-In . SVG Version: 6.00 Build 0)  -->
<!DOCTYPE svg PUBLIC "-//W3C//DTD SVG 1.1//EN" "http://www.w3.org/Graphics/SVG/1.1/DTD/svg11.dtd">
<svg version="1.1" id="Слой_1" xmlns="http://www.w3.org/2000/svg" xmlns:xlink="http://www.w3.org/1999/xlink" x="0px" y="0px"
	 width="50px" height="40px" viewBox="0 0 50 40" style="enable-background:new 0 0 50 40;"
	 xml:space="preserve">
<style type="text/css">
<![CDATA[
	.st0{fill:none;stroke:#D9AA4B;stroke-width:2;stroke-linecap:round;stroke-linejoin:round;stroke-miterlimit:10;}
]]>
</style>
<g>
	<rect x="1.167" y="1.333" class="st0" width="48" height="24"/>
	<rect x="1.167" y="1.333" class="st0" width="48" height="38"/>
	<line class="st0" x1="1.167" y1="30.333" x2="13.167" y2="30.333"/>
	<line class="st0" x1="1.167" y1="34.333" x2="13.167" y2="34.333"/>
	<line class="st0" x1="37.167" y1="30.333" x2="49.167" y2="30.333"/>
	<line class="st0" x1="37.167" y1="34.333" x2="49.167" y2="34.333"/>
	<path class="st0" d="M22.167,20.333v-14h4c0,0,4.712-0.204,4.712,3.5c0,3.795-4.117,3.5-4.117,3.5h-7.595"/>
	<line class="st0" x1="19.167" y1="16.333" x2="27.167" y2="16.333"/>
	<polyline class="st0" points="13.167,1.333 13.167,25.143 13.167,39.333 	"/>
	<polyline class="st0" points="37.167,1.333 37.167,25.143 37.167,39.333 	"/>
</g>
</svg>
